/* XPM */
static char * bitcoin16_xpm[] = {
"16 16 85 1",
" 	c None",
".	c #6B654A",
"+	c #9D9D97",
"@	c #766E4E",
"#	c #898058",
"$	c #696446",
"%	c #7E7753",
"&	c #6B664E",
"*	c #6C6647",
"=	c #827A59",
"-	c #706A4D",
";	c #898364",
">	c #736D54",
",	c #65614A",
"'	c #847B56",
")	c #635E49",
"!	c #69644E",
"~	c #625E48",
"{	c #6A654E",
"]	c #625D48",
"^	c #757263",
"/	c #7C744E",
"(	c #635F4A",
"_	c #716C4D",
":	c #9D9D93",
"<	c #838675",
"[	c #86867B",
"}	c #919186",
"|	c #A1A197",
"1	c #999A8E",
"2	c #5E5C4E",
"3	c #847B51",
"4	c #5E5A45",
"5	c #767466",
"6	c #6E6A59",
"7	c #6D674C",
"8	c #67675B",
"9	c #79796E",
"0	c #777155",
"a	c #696451",
"b	c #686754",
"c	c #AAA171",
"d	c #6E684E",
"e	c #716B50",
"f	c #878679",
"g	c #ABA162",
"h	c #6B654E",
"i	c #54523D",
"j	c #888573",
"k	c #ABA165",
"l	c #6A654D",
"m	c #6D6750",
"n	c #848379",
"o	c #ACA167",
"p	c #787253",
"q	c #706A51",
"r	c #737466",
"s	c #767055",
"t	c #6A6449",
"u	c #8F8954",
"v	c #999258",
"w	c #9C9659",
"x	c #716B41",
"y	c #80794E",
"z	c #918B5B",
"A	c #6E684C",
"B	c #605C44",
"C	c #6A644B",
"D	c #726C4F",
"E	c #6A6653",
"F	c #888054",
"G	c #6B654C",
"H	c #726B51",
"I	c #67634F",
"J	c #76725D",
"K	c #6D6A5B",
"L	c #716D57",
"M	c #66624A",
"N	c #706A53",
"O	c #6E6A57",
"P	c #686657",
"Q	c #726F5F",
"R	c #6D6A54",
"S	c #7C7552",
"T	c #A0A098",
"                ",
"        .+      ",
"    @#$%&*=-;   ",
"    >,')!~{]^   ",
"    /(_:<[}|1   ",
"     234        ",
"      5678      ",
"       90ab     ",
"       cdef     ",
"      ghij      ",
"     klmn       ",
"    opqr        ",
"    s,tuvwxyz   ",
"    ABCDEFGHI   ",
"    JKLMNOPQR   ",
"        ST      "};
