/* XPM */
static char * bitcoin32_xpm[] = {
"32 32 242 2",
"  	c None",
". 	c #A9A071",
"+ 	c #9F955E",
"@ 	c #7D7D71",
"# 	c #80794D",
"$ 	c #99915D",
"% 	c #736C52",
"& 	c #8F9086",
"* 	c #A19B68",
"= 	c #918954",
"- 	c #7A724A",
"; 	c #A69E5D",
"> 	c #777046",
", 	c #928A52",
"' 	c #B6AF72",
") 	c #7F7859",
"! 	c #656147",
"~ 	c #5F5C4B",
"{ 	c #8F8750",
"] 	c #A0995F",
"^ 	c #857C50",
"/ 	c #8A8456",
"( 	c #7F7646",
"_ 	c #838274",
": 	c #918952",
"< 	c #6F694A",
"[ 	c #6A644D",
"} 	c #645F48",
"| 	c #767053",
"1 	c #827A53",
"2 	c #696550",
"3 	c #6B664A",
"4 	c #67624C",
"5 	c #766F4E",
"6 	c #6E684D",
"7 	c #69644C",
"8 	c #635F4A",
"9 	c #7B7450",
"0 	c #6A644B",
"a 	c #8F8F84",
"b 	c #988F58",
"c 	c #6E6851",
"d 	c #65614C",
"e 	c #555240",
"f 	c #6C684F",
"g 	c #706A4B",
"h 	c #625E47",
"i 	c #736D4F",
"j 	c #686349",
"k 	c #676454",
"l 	c #6A654D",
"m 	c #6C664F",
"n 	c #67624A",
"o 	c #5F5B46",
"p 	c #67624B",
"q 	c #8C8D84",
"r 	c #867D4E",
"s 	c #5D5945",
"t 	c #6C664A",
"u 	c #726C51",
"v 	c #777055",
"w 	c #6A6755",
"x 	c #686553",
"y 	c #605C49",
"z 	c #5B5743",
"A 	c #69644A",
"B 	c #827A57",
"C 	c #6D6750",
"D 	c #68634E",
"E 	c #625E48",
"F 	c #84857A",
"G 	c #797146",
"H 	c #746E4D",
"I 	c #6B664E",
"J 	c #615F4B",
"K 	c #686450",
"L 	c #7E7A67",
"M 	c #8D8D83",
"N 	c #848478",
"O 	c #7D7D70",
"P 	c #7E7E74",
"Q 	c #8E8E85",
"R 	c #8C8D83",
"S 	c #999991",
"T 	c #96968D",
"U 	c #818274",
"V 	c #9D9B95",
"W 	c #747263",
"X 	c #69644D",
"Y 	c #6F6951",
"Z 	c #6B674F",
"` 	c #6A664E",
" .	c #79796F",
"..	c #6D6D61",
"+.	c #625E4B",
"@.	c #807850",
"#.	c #6C664C",
"$.	c #625E4A",
"%.	c #6C6B60",
"&.	c #747161",
"*.	c #65624F",
"=.	c #6D6745",
"-.	c #756F52",
";.	c #656049",
">.	c #727267",
",.	c #7A796E",
"'.	c #6B6652",
").	c #6C6959",
"!.	c #756E4E",
"~.	c #6C674E",
"{.	c #656457",
"].	c #717166",
"^.	c #767054",
"/.	c #6E684F",
"(.	c #6A6753",
"_.	c #828278",
":.	c #6A654F",
"<.	c #66624F",
"[.	c #5B5745",
"}.	c #5A5744",
"|.	c #6C6854",
"1.	c #87877A",
"2.	c #B2AC7D",
"3.	c #6C6749",
"4.	c #736C4B",
"5.	c #736B45",
"6.	c #656250",
"7.	c #93938B",
"8.	c #C8C3A2",
"9.	c #716A4F",
"0.	c #625E49",
"a.	c #6C664E",
"b.	c #666351",
"c.	c #9D9D95",
"d.	c #CBC79E",
"e.	c #736D52",
"f.	c #615E4B",
"g.	c #595642",
"h.	c #706B50",
"i.	c #9A9A91",
"j.	c #CBC499",
"k.	c #827C5C",
"l.	c #6B654C",
"m.	c #7D7756",
"n.	c #9B9B92",
"o.	c #C8C28D",
"p.	c #7F7A5B",
"q.	c #6A6655",
"r.	c #6D6851",
"s.	c #93948B",
"t.	c #C3BB89",
"u.	c #8A866C",
"v.	c #726C4A",
"w.	c #807853",
"x.	c #6A654E",
"y.	c #929189",
"z.	c #C1B98B",
"A.	c #989066",
"B.	c #777053",
"C.	c #716B51",
"D.	c #666250",
"E.	c #797A6C",
"F.	c #B9B382",
"G.	c #8A8461",
"H.	c #68634C",
"I.	c #64604C",
"J.	c #8E8E83",
"K.	c #8F8553",
"L.	c #6B664D",
"M.	c #716B4A",
"N.	c #6A6549",
"O.	c #6E6B57",
"P.	c #968F55",
"Q.	c #787149",
"R.	c #968E55",
"S.	c #978F55",
"T.	c #857D52",
"U.	c #817947",
"V.	c #857E4C",
"W.	c #9A925A",
"X.	c #A7A165",
"Y.	c #706E5E",
"Z.	c #A0975E",
"`.	c #66614B",
" +	c #6B6654",
".+	c #68634D",
"++	c #656149",
"@+	c #6A6545",
"#+	c #6B6646",
"$+	c #726C4D",
"%+	c #777050",
"&+	c #6D6A59",
"*+	c #645F49",
"=+	c #656048",
"-+	c #666145",
";+	c #6A6447",
">+	c #8A8981",
",+	c #A0985C",
"'+	c #726C50",
")+	c #6B6549",
"!+	c #666247",
"~+	c #635E48",
"{+	c #6A6657",
"]+	c #877E4C",
"^+	c #70694D",
"/+	c #68634B",
"(+	c #615D48",
"_+	c #646049",
":+	c #7B7B6E",
"<+	c #968D57",
"[+	c #6B654F",
"}+	c #6B6857",
"|+	c #645F42",
"1+	c #5C5948",
"2+	c #6A6449",
"3+	c #6C664D",
"4+	c #7F7754",
"5+	c #686451",
"6+	c #67634F",
"7+	c #656041",
"8+	c #87867D",
"9+	c #757467",
"0+	c #8A8A81",
"a+	c #7A7A6D",
"b+	c #89897E",
"c+	c #78786A",
"d+	c #78776A",
"e+	c #676146",
"f+	c #67624D",
"g+	c #7F7D73",
"h+	c #8A8A80",
"i+	c #89887E",
"j+	c #78786C",
"k+	c #87877D",
"l+	c #8B8B82",
"m+	c #605E46",
"n+	c #867E57",
"o+	c #696448",
"p+	c #8E8E84",
"q+	c #797662",
"r+	c #828176",
"s+	c #989893",
"                                                                ",
"                                                                ",
"                              . + @                             ",
"                            # $ % &                             ",
"                * = - ; > , ' ) ! ~ { ] ^ / ( _                 ",
"                : < [ } | 1 2 3 4 5 6 7 8 9 0 a                 ",
"                b c d e f g h i j k l m n o p q                 ",
"                r s t u v w x y z A B C p D E F                 ",
"                G H I J K L M N O P Q R S T U V                 ",
"                  W X Y Z `  .                                  ",
"                    ..+.@.#.$.%.                                ",
"                      &.*.=.-.;.>.                              ",
"                        ,.'.).!.~.{.                            ",
"                          ].^.h /.7 (.                          ",
"                            _.:.<.[.}.|.1.                      ",
"                              2.3.4.5.6.7.                      ",
"                            8.9.0.a.b.c.                        ",
"                          d.e.f.g.h.i.                          ",
"                        j.k.a.l.m.n.                            ",
"                      o.p.q.r.<.s.                              ",
"                    t.u.v.w.x.y.                                ",
"                  z.A.B.C.D.E.                                  ",
"                F.G.H.I.E J.                                    ",
"                K.r.L.M.N.O.P.Q.R.S.T.U.V.W.X.Y.                ",
"                Z.`. +.+++@+#+$+%+&+*+=+-+;+7 >+                ",
"                ,+'+)+!+t H.~+{+0 ]+^+/+(+r._+:+                ",
"                <+/.[+}+|+1+2+3+4+C.D 5+7 6+7+8+                ",
"                9+Q 0+a+b+c+d+e+f+g+h+F i+j+k+l+                ",
"                            m+n+o+p+                            ",
"                              q+r+s+                            ",
"                                                                ",
"                                                                "};
